<mxfile host="app.diagrams.net" modified="2022-04-27T08:50:21.385Z" agent="5.0 (Windows NT 10.0; Win64; x64) AppleWebKit/537.36 (KHTML, like Gecko) Chrome/100.0.4896.127 Safari/537.36" etag="yBhvQBU-Qezx0SiDkMRo" version="17.4.6" type="github">
  <diagram id="0-TfC5U8BsGCzvnypF4q" name="第 1 页">
    <mxGraphModel dx="447" dy="217" grid="1" gridSize="10" guides="1" tooltips="1" connect="1" arrows="1" fold="1" page="1" pageScale="1" pageWidth="827" pageHeight="1169" math="0" shadow="0">
      <root>
        <mxCell id="0" />
        <mxCell id="1" parent="0" />
        <mxCell id="Ss33j2blEXzXo_HwG9Xu-4" value="" style="edgeStyle=orthogonalEdgeStyle;rounded=0;orthogonalLoop=1;jettySize=auto;html=1;" edge="1" parent="1" source="Ss33j2blEXzXo_HwG9Xu-1" target="Ss33j2blEXzXo_HwG9Xu-3">
          <mxGeometry relative="1" as="geometry" />
        </mxCell>
        <mxCell id="Ss33j2blEXzXo_HwG9Xu-1" value="初始化&lt;br&gt;Res = new int[2];&lt;br&gt;map(需要的元素，下标)" style="rounded=1;whiteSpace=wrap;html=1;fillColor=#d5e8d4;strokeColor=#82b366;" vertex="1" parent="1">
          <mxGeometry x="240" y="40" width="140" height="60" as="geometry" />
        </mxCell>
        <mxCell id="Ss33j2blEXzXo_HwG9Xu-8" style="edgeStyle=orthogonalEdgeStyle;rounded=0;orthogonalLoop=1;jettySize=auto;html=1;exitX=0.5;exitY=1;exitDx=0;exitDy=0;entryX=0.5;entryY=0;entryDx=0;entryDy=0;" edge="1" parent="1" source="Ss33j2blEXzXo_HwG9Xu-3" target="Ss33j2blEXzXo_HwG9Xu-5">
          <mxGeometry relative="1" as="geometry" />
        </mxCell>
        <mxCell id="Ss33j2blEXzXo_HwG9Xu-3" value="遍历nums元素i" style="rounded=1;whiteSpace=wrap;html=1;fillColor=#d5e8d4;strokeColor=#82b366;" vertex="1" parent="1">
          <mxGeometry x="250" y="132" width="120" height="40" as="geometry" />
        </mxCell>
        <mxCell id="Ss33j2blEXzXo_HwG9Xu-7" value="" style="edgeStyle=orthogonalEdgeStyle;rounded=0;orthogonalLoop=1;jettySize=auto;html=1;" edge="1" parent="1" source="Ss33j2blEXzXo_HwG9Xu-5" target="Ss33j2blEXzXo_HwG9Xu-6">
          <mxGeometry relative="1" as="geometry" />
        </mxCell>
        <mxCell id="Ss33j2blEXzXo_HwG9Xu-10" value="" style="edgeStyle=orthogonalEdgeStyle;rounded=0;orthogonalLoop=1;jettySize=auto;html=1;" edge="1" parent="1" source="Ss33j2blEXzXo_HwG9Xu-5" target="Ss33j2blEXzXo_HwG9Xu-9">
          <mxGeometry relative="1" as="geometry" />
        </mxCell>
        <mxCell id="Ss33j2blEXzXo_HwG9Xu-5" value="该元素是否是被需要的那个？" style="rhombus;whiteSpace=wrap;html=1;fillColor=#d5e8d4;strokeColor=#82b366;rounded=1;" vertex="1" parent="1">
          <mxGeometry x="210" y="200" width="200" height="80" as="geometry" />
        </mxCell>
        <mxCell id="Ss33j2blEXzXo_HwG9Xu-15" value="" style="edgeStyle=orthogonalEdgeStyle;rounded=0;orthogonalLoop=1;jettySize=auto;html=1;" edge="1" parent="1" source="Ss33j2blEXzXo_HwG9Xu-6" target="Ss33j2blEXzXo_HwG9Xu-14">
          <mxGeometry relative="1" as="geometry" />
        </mxCell>
        <mxCell id="Ss33j2blEXzXo_HwG9Xu-6" value="当前元素下标&lt;br&gt;当前元素对应下标" style="whiteSpace=wrap;html=1;fillColor=#d5e8d4;strokeColor=#82b366;rounded=1;" vertex="1" parent="1">
          <mxGeometry x="250" y="320" width="120" height="60" as="geometry" />
        </mxCell>
        <mxCell id="Ss33j2blEXzXo_HwG9Xu-13" style="edgeStyle=orthogonalEdgeStyle;rounded=0;orthogonalLoop=1;jettySize=auto;html=1;exitX=0.5;exitY=0;exitDx=0;exitDy=0;entryX=1;entryY=0.5;entryDx=0;entryDy=0;" edge="1" parent="1" source="Ss33j2blEXzXo_HwG9Xu-9" target="Ss33j2blEXzXo_HwG9Xu-3">
          <mxGeometry relative="1" as="geometry" />
        </mxCell>
        <mxCell id="Ss33j2blEXzXo_HwG9Xu-9" value="需要的元素，下标&lt;br&gt;保存进map" style="whiteSpace=wrap;html=1;fillColor=#d5e8d4;strokeColor=#82b366;rounded=1;" vertex="1" parent="1">
          <mxGeometry x="486" y="210" width="120" height="60" as="geometry" />
        </mxCell>
        <mxCell id="Ss33j2blEXzXo_HwG9Xu-11" value="No" style="text;html=1;strokeColor=none;fillColor=none;align=center;verticalAlign=middle;whiteSpace=wrap;rounded=0;" vertex="1" parent="1">
          <mxGeometry x="414" y="210" width="60" height="30" as="geometry" />
        </mxCell>
        <mxCell id="Ss33j2blEXzXo_HwG9Xu-12" value="Yes" style="text;html=1;strokeColor=none;fillColor=none;align=center;verticalAlign=middle;whiteSpace=wrap;rounded=0;" vertex="1" parent="1">
          <mxGeometry x="310" y="299" width="60" height="30" as="geometry" />
        </mxCell>
        <mxCell id="Ss33j2blEXzXo_HwG9Xu-14" value="得到最终结果" style="whiteSpace=wrap;html=1;fillColor=#d5e8d4;strokeColor=#82b366;rounded=1;" vertex="1" parent="1">
          <mxGeometry x="250" y="420" width="120" height="60" as="geometry" />
        </mxCell>
      </root>
    </mxGraphModel>
  </diagram>
</mxfile>
